# Blender v2.83.9 OBJ File: 'drawing board.blend'
# www.blender.org
mtllib boardRulerLock.mtl
o Cube.001
v 0.039225 0.011242 0.008644
v -0.004628 0.011242 0.008644
v -0.004628 0.011242 -0.008644
v 0.039225 0.011242 -0.008644
v 0.009716 0.011242 0.008644
v 0.005340 0.011242 0.008644
v 0.008326 0.011242 0.008644
v 0.006724 0.011242 0.008644
v 0.005340 0.011242 -0.008644
v 0.009716 0.011242 -0.008644
v 0.006724 0.011242 -0.008644
v 0.008326 0.011242 -0.008644
v -0.004628 0.010788 0.008644
v -0.003617 0.011949 0.007624
v -0.004331 0.011552 0.008346
v 0.038207 0.011865 0.007624
v 0.039225 0.010790 0.008644
v 0.038927 0.011528 0.008346
v -0.003617 0.011949 -0.007624
v -0.004628 0.010788 -0.008644
v -0.004331 0.011552 -0.008346
v 0.039225 0.010790 -0.008644
v 0.038207 0.011865 -0.007624
v 0.038927 0.011528 -0.008346
v 0.009716 0.012326 0.008644
v 0.009716 0.013349 0.007624
v 0.009716 0.013049 0.008346
v 0.005340 0.013167 0.007624
v 0.005340 0.012143 0.008644
v 0.005340 0.012867 0.008346
v 0.008326 0.013366 0.007624
v 0.008326 0.012343 0.008644
v 0.008326 0.013066 0.008346
v 0.006724 0.013299 0.007624
v 0.006724 0.012276 0.008644
v 0.006724 0.013000 0.008346
v 0.005340 0.012143 -0.008644
v 0.005340 0.013167 -0.007624
v 0.005340 0.012867 -0.008346
v 0.009716 0.013349 -0.007624
v 0.009716 0.012326 -0.008644
v 0.009716 0.013049 -0.008346
v 0.006724 0.012276 -0.008644
v 0.006724 0.013299 -0.007624
v 0.006724 0.013000 -0.008346
v 0.008326 0.012343 -0.008644
v 0.008326 0.013366 -0.007624
v 0.008326 0.013066 -0.008346
vt 0.541710 0.300219
vt 0.575591 0.290728
vt 0.577156 0.291857
vt 0.542780 0.303833
vt 0.523727 0.300928
vt 0.529382 0.301044
vt 0.529435 0.305774
vt 0.523331 0.305309
vt 0.536003 0.300824
vt 0.536669 0.305235
vt 0.529253 0.294925
vt 0.530337 0.234861
vt 0.536373 0.235176
vt 0.535315 0.294744
vt 0.424295 0.289538
vt 0.422844 0.290968
vt 0.530616 0.228756
vt 0.524949 0.228718
vt 0.524665 0.224307
vt 0.530807 0.224029
vt 0.424622 0.238489
vt 0.423027 0.236977
vt 0.524061 0.295030
vt 0.429412 0.285006
vt 0.429558 0.243025
vt 0.525153 0.234641
vt 0.537201 0.229163
vt 0.537995 0.224816
vt 0.570466 0.286982
vt 0.540400 0.294436
vt 0.541420 0.235574
vt 0.570461 0.243444
vt 0.575747 0.239755
vt 0.542819 0.229918
vt 0.543965 0.226403
vt 0.577156 0.238695
vt 0.572924 0.288868
vt 0.573084 0.241566
vt 0.427219 0.240801
vt 0.426882 0.287267
vt 0.523948 0.297869
vt 0.529317 0.297909
vt 0.530471 0.231884
vt 0.525100 0.231792
vt 0.535575 0.297717
vt 0.536698 0.232233
vt 0.540912 0.297234
vt 0.541970 0.232832
vn 0.0000 0.0000 1.0000
vn -0.0415 0.9991 0.0000
vn 0.0000 0.0000 -1.0000
vn -1.0000 0.0000 0.0000
vn 0.0520 0.9986 0.0000
vn -0.1347 0.9909 0.0000
vn 0.0126 0.9999 0.0000
vn -0.0955 0.9954 -0.0000
vn -0.9324 0.3614 0.0000
vn -0.4855 0.8742 0.0000
vn 0.9272 0.3747 0.0000
vn 0.4237 0.9058 0.0000
vn 0.0048 0.3819 0.9242
vn 0.0116 0.9235 0.3834
vn 0.0048 0.3819 -0.9242
vn 0.0116 0.9235 -0.3834
vn -0.0159 0.3818 0.9241
vn -0.0384 0.9228 0.3833
vn -0.0159 0.3818 -0.9241
vn -0.0384 0.9228 -0.3833
vn -0.0367 0.3814 0.9237
vn -0.0883 0.9199 0.3822
vn -0.0367 0.3814 -0.9237
vn -0.0883 0.9199 -0.3822
vn 0.0199 0.3819 0.9240
vn 0.0480 0.9225 0.3829
vn 0.0199 0.3819 -0.9240
vn 0.0480 0.9225 -0.3829
vn -0.0518 0.3811 0.9231
vn -0.1245 0.9163 0.3808
vn -0.0518 0.3811 -0.9231
vn -0.1245 0.9163 -0.3808
vn 1.0000 0.0000 -0.0000
usemtl (null)
s off
f 29/1/1 13/2/1 2/3/1 6/4/1
f 25/5/1 32/6/1 7/7/1 5/8/1
f 35/9/1 29/1/1 6/4/1 8/10/1
f 32/6/1 35/9/1 8/10/1 7/7/1
f 31/11/2 47/12/2 44/13/2 34/14/2
f 17/15/1 25/5/1 5/8/1 1/16/1
f 46/17/3 41/18/3 10/19/3 12/20/3
f 22/21/4 17/15/4 1/16/4 4/22/4
f 26/23/5 16/24/5 23/25/5 40/26/5
f 43/27/3 46/17/3 12/20/3 11/28/3
f 41/18/3 22/21/3 4/22/3 10/19/3
f 14/29/6 28/30/6 38/31/6 19/32/6
f 20/33/3 37/34/3 9/35/3 3/36/3
f 26/23/7 40/26/7 47/12/7 31/11/7
f 34/14/8 44/13/8 38/31/8 28/30/8
f 37/34/3 43/27/3 11/28/3 9/35/3
f 20/33/9 13/2/9 15/37/9 21/38/9
f 21/38/10 15/37/10 14/29/10 19/32/10
f 17/15/11 22/21/11 24/39/11 18/40/11
f 18/40/12 24/39/12 23/25/12 16/24/12
f 32/6/13 25/5/13 27/41/13 33/42/13
f 33/42/14 27/41/14 26/23/14 31/11/14
f 41/18/15 46/17/15 48/43/15 42/44/15
f 42/44/16 48/43/16 47/12/16 40/26/16
f 35/9/17 32/6/17 33/42/17 36/45/17
f 36/45/18 33/42/18 31/11/18 34/14/18
f 46/17/19 43/27/19 45/46/19 48/43/19
f 48/43/20 45/46/20 44/13/20 47/12/20
f 29/1/21 35/9/21 36/45/21 30/47/21
f 30/47/22 36/45/22 34/14/22 28/30/22
f 43/27/23 37/34/23 39/48/23 45/46/23
f 45/46/24 39/48/24 38/31/24 44/13/24
f 25/5/25 17/15/25 18/40/25 27/41/25
f 27/41/26 18/40/26 16/24/26 26/23/26
f 22/21/27 41/18/27 42/44/27 24/39/27
f 24/39/28 42/44/28 40/26/28 23/25/28
f 13/2/29 29/1/29 30/47/29 15/37/29
f 15/37/30 30/47/30 28/30/30 14/29/30
f 37/34/31 20/33/31 21/38/31 39/48/31
f 39/48/32 21/38/32 19/32/32 38/31/32
f 13/2/33 20/33/33 3/36/33 2/3/33
