# Blender v2.83.9 OBJ File: 'drawing board.blend'
# www.blender.org
mtllib pen.mtl
o Cylinder
v 0.000302 0.002826 -0.105556
v -0.000302 0.002826 -0.105556
v 0.002598 0.001151 -0.105556
v 0.002296 0.001674 -0.105556
v 0.002296 -0.001674 -0.105556
v 0.002598 -0.001151 -0.105556
v -0.000302 -0.002826 -0.105556
v 0.000302 -0.002826 -0.105556
v -0.002598 -0.001151 -0.105556
v -0.002296 -0.001674 -0.105556
v -0.002296 0.001674 -0.105556
v -0.002598 0.001151 -0.105556
v 0.000303 0.002140 -0.106221
v -0.000303 0.002140 -0.106221
v 0.002005 0.000807 -0.106221
v 0.001701 0.001333 -0.106221
v 0.001701 -0.001333 -0.106221
v 0.002005 -0.000807 -0.106221
v -0.000303 -0.002140 -0.106221
v 0.000303 -0.002140 -0.106221
v -0.002005 -0.000807 -0.106221
v -0.001701 -0.001333 -0.106221
v -0.001701 0.001333 -0.106221
v -0.002005 0.000807 -0.106221
v -0.000304 0.001739 -0.106435
v 0.000304 0.001739 -0.106435
v 0.001354 0.001133 -0.106435
v 0.001658 0.000606 -0.106435
v 0.001658 -0.000606 -0.106435
v 0.001354 -0.001133 -0.106435
v 0.000304 -0.001739 -0.106435
v -0.000304 -0.001739 -0.106435
v -0.001354 -0.001133 -0.106435
v -0.001658 -0.000606 -0.106435
v -0.001658 0.000606 -0.106435
v -0.001354 0.001133 -0.106435
v 0.002598 0.000844 -0.008601
v 0.002598 0.000000 -0.008079
v -0.002598 -0.000844 -0.008601
v -0.002598 -0.000000 -0.008079
v 0.002598 0.001152 -0.009153
v -0.002598 0.000844 -0.008601
v -0.001536 -0.002113 -0.008135
v 0.000302 -0.002826 -0.012359
v -0.000302 -0.002826 -0.012359
v 0.002598 -0.001152 -0.012359
v 0.002296 -0.001674 -0.012359
v 0.002598 0.000476 -0.012359
v -0.001536 0.002113 -0.008135
v 0.001536 -0.002113 -0.008135
v -0.002299 0.001670 -0.009031
v -0.000821 0.002526 -0.008306
v -0.000302 0.002826 -0.009154
v 0.002598 -0.001152 -0.009153
v 0.002598 -0.000844 -0.008601
v 0.000821 -0.002526 -0.008306
v 0.000302 -0.002826 -0.009155
v -0.000000 -0.002826 -0.008968
v -0.000821 -0.002526 -0.008306
v -0.002598 -0.001152 -0.009153
v -0.002296 0.001674 -0.012359
v -0.000302 0.002826 -0.012359
v 0.002598 0.001142 -0.012359
v 0.000302 0.002826 -0.012359
v 0.002296 0.001674 -0.012359
v -0.002598 0.001142 -0.012359
v -0.000302 -0.002826 -0.009155
v -0.002296 -0.001674 -0.012359
v -0.002598 -0.001152 -0.012359
v 0.001536 0.002113 -0.008135
v 0.000821 0.002526 -0.008306
v -0.002598 0.001152 -0.009153
v -0.000000 0.002826 -0.008968
v 0.002299 0.001670 -0.009031
v 0.000302 0.002826 -0.009154
v 0.002299 -0.001670 -0.009031
v -0.002299 -0.001670 -0.009031
v -0.000528 -0.000000 0.000000
v 0.000310 0.000427 0.000000
v 0.000310 -0.000427 -0.000000
v -0.000502 -0.000163 0.000000
v 0.000163 0.000502 -0.000000
v 0.000427 -0.000310 -0.000000
v -0.000427 -0.000310 0.000000
v -0.000000 0.000528 0.000000
v 0.000502 -0.000163 0.000000
v -0.000310 -0.000427 -0.000000
v -0.000310 0.000427 -0.000000
v 0.000528 0.000000 -0.000000
v -0.000163 -0.000502 0.000000
v -0.000427 0.000310 -0.000000
v 0.000502 0.000163 0.000000
v -0.000000 -0.000528 -0.000000
v -0.000502 0.000163 0.000000
v 0.000427 0.000310 -0.000000
v 0.000163 -0.000502 -0.000000
v -0.000163 0.000502 0.000000
v 0.000897 0.000651 -0.002265
v -0.000651 0.000897 -0.002265
v 0.000342 0.001054 -0.002265
v -0.000000 -0.001108 -0.002265
v 0.000342 -0.001054 -0.002265
v 0.001108 0.000000 -0.002265
v 0.000897 -0.000651 -0.002265
v -0.000342 0.001054 -0.002265
v -0.000342 -0.001054 -0.002265
v -0.000897 -0.000651 -0.002265
v -0.001108 -0.000000 -0.002265
v -0.000897 0.000651 -0.002265
v -0.000000 0.001108 -0.002265
v 0.000651 0.000897 -0.002265
v 0.001054 0.000342 -0.002265
v 0.001054 -0.000342 -0.002265
v 0.000651 -0.000897 -0.002265
v -0.001054 0.000342 -0.002265
v -0.000651 -0.000897 -0.002265
v -0.001054 -0.000342 -0.002265
vt 0.021448 0.464107
vt 0.021043 0.346166
vt 0.024215 0.363284
vt 0.024403 0.439646
vt 0.022727 0.299958
vt 0.030172 0.247936
vt 0.030239 0.296656
vt 0.025264 0.332848
vt 0.032492 0.248769
vt 0.039840 0.308928
vt 0.036916 0.335852
vt 0.032311 0.297011
vt 0.041014 0.338025
vt 0.041014 0.458872
vt 0.037878 0.436825
vt 0.037961 0.361048
vt 0.039837 0.487885
vt 0.032499 0.550155
vt 0.032235 0.500871
vt 0.036872 0.462455
vt 0.965760 0.127706
vt 0.175824 0.125401
vt 0.176065 0.109384
vt 0.175990 0.088435
vt 0.965989 0.102398
vt 0.025598 0.372422
vt 0.025726 0.428649
vt 0.966013 0.256834
vt 0.175107 0.257090
vt 0.174628 0.228220
vt 0.965969 0.231630
vt 0.030166 0.501684
vt 0.025510 0.464244
vt 0.026774 0.452641
vt 0.030186 0.480011
vt 0.966054 0.923033
vt 0.139583 1.007882
vt 0.138610 0.026351
vt 0.164723 0.322634
vt 0.173676 0.313483
vt 0.174298 0.313483
vt 0.965957 0.313483
vt 0.965718 0.170730
vt 0.174269 0.166665
vt 0.175360 0.141044
vt 0.965678 0.145487
vt 0.036544 0.426665
vt 0.036605 0.371215
vt 0.030249 0.318202
vt 0.026597 0.346583
vt 0.032162 0.479617
vt 0.032243 0.318689
vt 0.035632 0.346946
vt 0.035549 0.451163
vt 0.966011 0.299945
vt 0.174785 0.298172
vt 0.175215 0.272934
vt 0.965949 0.274671
vt 0.965807 0.188574
vt 0.174081 0.181847
vt 0.021883 0.317359
vt 0.025108 0.336021
vt 0.022669 0.492244
vt 0.030122 0.550574
vt 0.175102 0.141028
vt 0.174017 0.166657
vt 0.169826 0.170682
vt 0.159223 0.161473
vt 0.157080 0.148776
vt 0.168243 0.135171
vt 0.171275 0.269855
vt 0.160822 0.283048
vt 0.163036 0.295104
vt 0.173263 0.303661
vt 0.164072 0.235340
vt 0.163211 0.234192
vt 0.163733 0.230796
vt 0.163946 0.229408
vt 0.180807 0.229257
vt 0.170153 0.124075
vt 0.175601 0.125394
vt 0.175814 0.109383
vt 0.162581 0.118991
vt 0.155344 0.104872
vt 0.162349 0.090575
vt 0.169837 0.085304
vt 0.171413 0.225417
vt 0.169646 0.214482
vt 0.965883 0.213791
vt 0.174841 0.257096
vt 0.172589 0.259311
vt 0.165849 0.255132
vt 0.159193 0.243040
vt 0.164987 0.230291
vt 0.174954 0.272926
vt 0.171023 0.269848
vt 0.170450 0.181704
vt 0.167376 0.176431
vt 0.170728 0.313483
vt 0.173011 0.303654
vt 0.174541 0.298165
vt 0.168029 0.073597
vt 0.966053 0.084568
vt 0.159105 0.202255
vt 0.160846 0.190490
vt 0.038033 0.484534
vt 0.037549 0.473363
vt 0.060805 0.153911
vt 0.067217 0.280290
vt 0.035989 0.460322
vt 0.035102 0.459933
vt 0.030433 0.000026
vt 0.041596 0.006882
vt 0.034217 0.463159
vt 0.033506 0.470418
vt 0.010320 0.135805
vt 0.019720 0.047608
vt 0.032925 0.480241
vt 0.032583 0.492192
vt 0.000054 0.416195
vt 0.003590 0.264770
vt 0.032515 0.505130
vt 0.032813 0.517262
vt 0.003138 0.728230
vt 0.000026 0.574876
vt 0.033286 0.528131
vt 0.033975 0.536427
vt 0.018972 0.951434
vt 0.009813 0.857908
vt 0.034814 0.541311
vt 0.035720 0.542274
vt 0.040887 0.999222
vt 0.029686 0.999974
vt 0.036602 0.539190
vt 0.037373 0.532326
vt 0.060410 0.857027
vt 0.051471 0.949778
vt 0.036844 0.465099
vt 0.052140 0.056866
vt 0.037952 0.522324
vt 0.038276 0.510149
vt 0.070214 0.583045
vt 0.066855 0.730539
vt 0.038305 0.497037
vt 0.070214 0.429075
vt 0.107890 0.506297
vt 0.108196 0.506992
vt 0.108709 0.702037
vt 0.103264 0.731232
vt 0.109131 0.497028
vt 0.109180 0.492478
vt 0.127821 0.482490
vt 0.128931 0.508381
vt 0.123541 0.554005
vt 0.108718 0.481217
vt 0.108419 0.479506
vt 0.113042 0.254128
vt 0.116312 0.220999
vt 0.119272 0.256694
vt 0.107519 0.481846
vt 0.107310 0.485252
vt 0.095578 0.374299
vt 0.095783 0.269771
vt 0.108499 0.506292
vt 0.114308 0.725580
vt 0.107595 0.504588
vt 0.138541 0.394823
vt 0.108991 0.501028
vt 0.120721 0.612090
vt 0.108942 0.484417
vt 0.120056 0.360745
vt 0.107803 0.479821
vt 0.098530 0.230974
vt 0.101968 0.260329
vt 0.107130 0.493481
vt 0.107202 0.497923
vt 0.093168 0.570295
vt 0.087561 0.530792
vt 0.088524 0.503846
vt 0.108785 0.504198
vt 0.120494 0.716423
vt 0.109106 0.488142
vt 0.123174 0.415741
vt 0.108108 0.479194
vt 0.107575 0.283613
vt 0.107173 0.489110
vt 0.087414 0.478067
vt 0.092780 0.432428
vt 0.107362 0.501709
vt 0.117739 0.755085
vt 0.128790 0.455501
vn 0.7457 -0.0000 -0.6663
vn 0.3729 -0.6458 -0.6663
vn -0.3729 -0.6458 -0.6663
vn -0.7457 0.0000 -0.6663
vn -0.3728 0.6458 -0.6663
vn 1.0000 -0.0000 -0.0000
vn 0.5258 -0.0000 -0.8506
vn -1.0000 0.0000 0.0000
vn 0.2629 0.4554 -0.8506
vn 0.5003 -0.8658 0.0000
vn 0.5000 0.8660 0.0000
vn -0.5258 0.0000 -0.8506
vn 0.2629 -0.4554 -0.8506
vn -0.0000 0.0000 -1.0000
vn -0.2629 -0.4554 -0.8506
vn -0.2629 0.4554 -0.8506
vn -0.5000 -0.8660 -0.0000
vn 0.0000 1.0000 -0.0000
vn -0.6024 -0.3478 -0.7184
vn 0.0000 -0.6956 -0.7184
vn 0.6024 -0.3478 -0.7184
vn 0.6024 0.3478 -0.7184
vn -0.6024 0.3478 -0.7184
vn 0.0000 0.6956 -0.7184
vn 0.0000 0.4716 -0.8818
vn -0.4084 0.2358 -0.8818
vn -0.4085 -0.2358 -0.8818
vn 0.0000 -0.4716 -0.8818
vn 0.4085 -0.2358 -0.8818
vn 0.4085 0.2358 -0.8818
vn 0.3729 0.6458 -0.6663
vn 0.5004 0.8658 0.0001
vn 0.5004 0.8658 -0.0001
vn 0.0000 0.0000 1.0000
vn 0.8682 0.4962 -0.0008
vn -0.8683 0.4961 -0.0000
vn 0.8681 0.4964 0.0000
vn -0.8662 -0.4997 -0.0001
vn -0.8660 -0.5000 -0.0000
vn -0.0000 -1.0000 -0.0000
vn 0.8662 -0.4997 -0.0000
vn -0.5003 0.8658 0.0000
vn -0.9575 0.1517 -0.2454
vn -0.6855 -0.6855 -0.2454
vn -0.1517 -0.9575 -0.2454
vn 0.4401 -0.8638 -0.2454
vn 0.8638 -0.4401 -0.2454
vn 0.9575 0.1517 -0.2454
vn 0.6855 0.6855 -0.2454
vn 0.1517 0.9575 -0.2454
vn -0.9575 -0.1517 -0.2454
vn -0.4401 0.8638 -0.2454
vn -0.8638 0.4401 -0.2454
vn -0.8638 -0.4401 -0.2454
vn -0.4401 -0.8638 -0.2454
vn 0.1517 -0.9575 -0.2454
vn 0.6855 -0.6855 -0.2454
vn 0.9575 -0.1517 -0.2454
vn 0.8638 0.4401 -0.2454
vn 0.4401 0.8638 -0.2454
vn -0.1517 0.9575 -0.2454
vn -0.6855 0.6855 -0.2454
usemtl (null)
s off
f 3/1/1 6/2/1 18/3/1 15/4/1
f 5/5/2 8/6/2 20/7/2 17/8/2
f 7/9/3 10/10/3 22/11/3 19/12/3
f 9/13/4 12/14/4 24/15/4 21/16/4
f 11/17/5 2/18/5 14/19/5 23/20/5
f 3/21/6 63/22/6 48/23/6 46/24/6 6/25/6
f 15/4/7 18/3/7 29/26/7 28/27/7
f 9/28/8 69/29/8 66/30/8 12/31/8
f 13/32/9 16/33/9 27/34/9 26/35/9
f 5/36/10 76/37/10 50/38/10 56/39/10 57/40/10 44/41/10 8/42/10
f 1/43/11 64/44/11 65/45/11 4/46/11
f 21/16/12 24/15/12 35/47/12 34/48/12
f 17/8/13 20/7/13 31/49/13 30/50/13
f 25/51/14 26/35/14 27/34/14 28/27/14 29/26/14 30/50/14 31/49/14 32/52/14 33/53/14 34/48/14 35/47/14 36/54/14
f 19/12/15 22/11/15 33/53/15 32/52/15
f 23/20/16 14/19/16 25/51/16 36/54/16
f 7/55/17 45/56/17 68/57/17 10/58/17
f 2/59/18 62/60/18 64/44/18 1/43/18
f 9/13/19 21/16/19 22/11/19 10/10/19
f 20/7/20 8/6/20 7/9/20 19/12/20
f 5/61/21 17/62/21 18/3/21 6/2/21
f 16/33/22 4/63/22 3/1/22 15/4/22
f 11/17/23 23/20/23 24/15/23 12/14/23
f 14/19/24 2/18/24 1/64/24 13/32/24
f 13/32/25 26/35/25 25/51/25 14/19/25
f 35/47/26 24/15/26 23/20/26 36/54/26
f 21/16/27 34/48/27 33/53/27 22/11/27
f 31/49/28 20/7/28 19/12/28 32/52/28
f 17/62/29 30/50/29 29/26/29 18/3/29
f 27/34/30 16/33/30 15/4/30 28/27/30
f 1/64/31 4/63/31 16/33/31 13/32/31
f 65/65/32 64/66/32 75/67/32 71/68/32 70/69/32 74/70/32
f 68/57/33 77/71/33 43/72/33 59/73/33 67/74/33 45/56/33
f 66/30/34 69/29/34 68/57/34 45/56/34 44/41/34 47/75/34 46/76/34 48/77/34 63/78/34 65/65/34 64/66/34 62/60/34 61/79/34
f 65/65/35 74/70/35 41/80/35 63/81/35
f 46/24/6 48/82/6 63/81/6 41/80/6 37/83/6 38/84/6 55/85/6 54/86/6
f 72/87/36 51/88/36 11/89/36 12/31/36 66/30/36
f 66/30/8 69/90/8 60/91/8 39/92/8 40/93/8 42/94/8 72/87/8
f 65/45/37 63/22/37 3/21/37 4/46/37
f 60/91/38 69/90/38 68/95/38 77/96/38
f 68/57/39 69/29/39 9/28/39 10/58/39
f 64/66/18 62/60/18 53/97/18 73/98/18 75/67/18
f 57/40/40 58/99/40 67/100/40 45/101/40 44/41/40
f 44/41/40 45/56/40 7/55/40 8/42/40
f 54/86/41 76/102/41 5/103/41 6/25/41 46/24/41
f 11/89/42 51/88/42 49/104/42 52/105/42 53/97/42 62/60/42 2/59/42
f 86/106/43 89/107/43 103/108/43 113/109/43
f 95/110/44 79/111/44 111/112/44 98/113/44
f 82/114/45 85/115/45 110/116/45 100/117/45
f 97/118/46 88/119/46 99/120/46 105/121/46
f 91/122/47 94/123/47 115/124/47 109/125/47
f 78/126/48 81/127/48 117/128/48 108/129/48
f 84/130/49 87/131/49 116/132/49 107/133/49
f 90/134/50 93/135/50 101/136/50 106/137/50
f 89/107/51 92/138/51 112/139/51 103/108/51
f 96/140/52 80/141/52 114/142/52 102/143/52
f 83/144/53 86/106/53 113/109/53 104/145/53
f 92/138/54 95/110/54 98/113/54 112/139/54
f 79/111/55 82/114/55 100/117/55 111/112/55
f 85/115/56 97/118/56 105/121/56 110/116/56
f 88/119/57 91/122/57 109/125/57 99/120/57
f 94/123/58 78/126/58 108/129/58 115/124/58
f 81/127/59 84/130/59 107/133/59 117/128/59
f 87/131/60 90/134/60 106/137/60 116/132/60
f 93/135/61 96/140/61 102/143/61 101/136/61
f 80/141/62 83/144/62 104/145/62 114/142/62
f 113/146/43 103/147/43 38/148/43 55/149/43
f 100/150/45 110/151/45 73/152/45 75/153/45 71/154/45
f 109/155/47 115/156/47 42/157/47 72/158/47 51/159/47
f 107/160/49 116/161/49 43/162/49 77/163/49
f 103/147/51 112/164/51 37/165/51 38/148/51
f 104/166/53 113/146/53 55/149/53 54/167/53 76/37/53
f 111/168/55 100/150/55 71/154/55 70/169/55
f 99/170/57 109/155/57 51/159/57 49/171/57
f 117/172/59 107/160/59 77/163/59 60/173/59 39/174/59
f 101/175/61 102/176/61 56/177/61 57/178/61 58/179/61
f 98/180/44 111/168/44 70/169/44 74/181/44
f 105/182/46 99/170/46 49/171/46 52/183/46
f 108/184/48 117/172/48 39/174/48 40/185/48
f 106/186/50 101/175/50 58/179/50 67/187/50 59/188/50
f 102/176/52 114/189/52 50/38/52 56/177/52
f 112/164/54 98/180/54 74/181/54 41/190/54 37/165/54
f 110/151/56 105/182/56 52/183/56 53/191/56 73/152/56
f 115/156/58 108/184/58 40/185/58 42/157/58
f 116/161/60 106/186/60 59/188/60 43/162/60
f 114/189/62 104/166/62 76/37/62 50/38/62
