# Blender v2.83.9 OBJ File: 'drawing board.blend'
# www.blender.org
mtllib ruler3060.mtl
o 30-60_Plane.006
v -0.232923 -0.000000 0.000000
v -0.000000 -0.000000 0.000000
v -0.000000 -0.000000 -0.134478
v -0.149328 -0.000000 -0.019592
v -0.026764 -0.000000 -0.019592
v -0.026764 -0.000000 -0.089605
v -0.230467 0.001436 -0.000588
v -0.232923 0.000717 0.000000
v -0.232204 0.001226 -0.000172
v -0.000000 0.000717 0.000000
v -0.000796 0.001436 -0.000583
v -0.000233 0.001226 -0.000171
v -0.000000 0.000717 -0.134478
v -0.000773 0.001436 -0.133182
v -0.000226 0.001226 -0.134099
v -0.149328 0.000717 -0.019592
v -0.151865 0.001436 -0.018873
v -0.150071 0.001226 -0.019381
v -0.025949 0.001436 -0.018995
v -0.026764 0.000717 -0.019592
v -0.026525 0.001226 -0.019417
v -0.026107 0.001436 -0.090707
v -0.026764 0.000717 -0.089605
v -0.026572 0.001226 -0.089928
vt 0.482736 0.475887
vt 0.422500 0.502448
vt 0.653651 0.102083
vt 0.604368 0.265214
vt 0.603081 0.545368
vt 0.653651 0.635903
vt 0.118191 0.460037
vt 0.422250 0.102083
vt 0.415214 0.125309
vt 0.131117 0.456662
vt 0.271074 0.750969
vt 0.271453 0.559393
vt 0.274502 0.547078
vt 0.276576 0.754836
vt 0.422250 0.526143
vt 0.412956 0.518248
vt 0.833935 0.187778
vt 0.710510 0.258664
vt 0.653902 0.233698
vt 0.881809 0.102083
vt 0.134658 0.718283
vt 0.128987 0.720379
vt 0.835244 0.475227
vt 0.881809 0.628483
vt 0.281968 0.526394
vt 0.281968 0.761487
vt 0.279177 0.757942
vt 0.277767 0.537768
vt 0.118191 0.723533
vt 0.124043 0.721775
vt 0.405988 0.510758
vt 0.407853 0.147007
vt 0.400777 0.504429
vt 0.401131 0.166666
vt 0.143966 0.453729
vt 0.154863 0.450581
vn 0.0000 -1.0000 0.0000
vn -0.5000 0.0000 -0.8660
vn 0.0000 0.0000 -1.0000
vn 1.0000 0.0000 0.0000
vn 0.0000 1.0000 -0.0000
vn -1.0000 0.0000 0.0000
vn 0.4960 0.0000 0.8683
vn -0.0003 0.9109 -0.4127
vn -0.0001 0.3543 -0.9351
vn -0.3748 0.9271 0.0005
vn -0.9206 0.3905 0.0003
vn 0.4660 0.3424 0.8158
vn 0.2113 0.9048 0.3699
vn -0.0000 0.3196 0.9475
vn -0.0000 0.8913 0.4534
vn 0.9112 0.4120 0.0000
vn 0.3548 0.9349 0.0000
vn -0.1894 0.9255 -0.3281
vn -0.4611 0.3866 -0.7987
vn 0.0000 0.0000 1.0000
usemtl uv_test
s off
f 5/1/1 2/2/1 1/3/1 4/4/1
f 6/5/1 3/6/1 2/2/1 5/1/1
f 4/4/1 1/3/1 3/6/1 6/5/1
f 3/7/2 1/8/2 8/9/2 13/10/2
f 5/11/3 4/12/3 16/13/3 20/14/3
f 2/15/4 3/7/4 13/10/4 10/16/4
f 22/17/5 19/18/5 11/19/5 14/20/5
f 6/21/6 5/11/6 20/14/6 23/22/6
f 4/12/7 6/21/7 23/22/7 16/13/7
f 17/23/5 22/17/5 14/20/5 7/24/5
f 19/18/5 17/23/5 7/24/5 11/19/5
f 17/25/8 19/26/8 21/27/8 18/28/8
f 18/28/9 21/27/9 20/14/9 16/13/9
f 19/26/10 22/29/10 24/30/10 21/27/10
f 21/27/11 24/30/11 23/22/11 20/14/11
f 16/13/12 23/22/12 24/30/12 18/28/12
f 18/28/13 24/30/13 22/29/13 17/25/13
f 8/9/14 10/16/14 12/31/14 9/32/14
f 9/32/15 12/31/15 11/33/15 7/34/15
f 10/16/16 13/10/16 15/35/16 12/31/16
f 12/31/17 15/35/17 14/36/17 11/33/17
f 7/34/18 14/36/18 15/35/18 9/32/18
f 9/32/19 15/35/19 13/10/19 8/9/19
f 1/8/20 2/15/20 10/16/20 8/9/20
