# Blender v2.83.9 OBJ File: 'drawing board.blend'
# www.blender.org
mtllib ruler45.mtl
o 45_rect288-7-2-9-2-6-7.001
v -0.024500 0.000000 -0.024500
v -0.024500 0.000000 -0.096363
v -0.096593 0.000000 -0.024500
v 0.000576 0.000833 -0.155953
v -0.024491 0.001121 -0.095612
v -0.024390 0.001121 -0.024813
v 0.000000 0.000544 0.000000
v -0.095759 0.001121 -0.024576
v -0.156453 0.000833 0.000576
v 0.000000 0.000000 0.000000
v -0.000000 0.000000 -0.155378
v -0.155874 0.000000 0.000000
v -0.000576 0.001121 -0.154267
v -0.000357 0.001121 -0.000877
v -0.154983 0.001121 -0.000363
vt 0.193892 0.347129
vt 0.497264 0.649535
vt 0.496150 0.648425
vt 0.195009 0.348243
vt 0.496150 0.348243
vt 0.496150 0.348243
vt 0.495037 0.646279
vt 0.495461 0.349937
vt 0.196731 0.348944
vt 0.448818 0.534411
vt 0.448835 0.532960
vt 0.311150 0.395723
vt 0.309539 0.395576
vt 0.448818 0.395576
vt 0.449031 0.396181
vn -0.7060 0.0000 -0.7082
vn 0.7060 -0.0000 0.7082
vn 0.0013 -0.3857 0.9226
vn 0.4975 0.8675 0.0014
vn 0.0023 0.9024 0.4310
vn -0.4297 0.7935 -0.4311
vn 0.6368 -0.4318 0.6388
vn 0.9226 -0.3857 0.0014
vn 0.0000 -1.0000 0.0000
vn 0.0000 1.0000 -0.0000
vn -0.0016 -0.1706 -0.9853
vn -0.9986 0.0531 0.0007
usemtl uv_test
s off
f 9/1/1 4/2/1 11/3/1 12/4/1
f 4/2/2 9/1/2 12/4/2 11/3/2
f 7/5/3 9/1/3 12/4/3 10/6/3
f 7/5/4 4/2/4 13/7/4 14/8/4
f 9/1/5 7/5/5 14/8/5 15/9/5
f 4/2/6 9/1/6 15/9/6 13/7/6
f 2/10/7 5/11/7 8/12/7 3/13/7
f 4/2/8 7/5/8 10/6/8 11/3/8
f 1/14/9 2/10/9 11/3/9 10/6/9
f 3/13/9 1/14/9 10/6/9 12/4/9
f 2/10/9 3/13/9 12/4/9 11/3/9
f 5/11/10 6/15/10 14/8/10 13/7/10
f 6/15/10 8/12/10 15/9/10 14/8/10
f 8/12/10 5/11/10 13/7/10 15/9/10
f 3/13/11 8/12/11 6/15/11 1/14/11
f 1/14/12 6/15/12 5/11/12 2/10/12
